<?xml version="1.0" standalone="no"?>
<!DOCTYPE svg PUBLIC "-//W3C//DTD SVG 20010904//EN"
 "http://www.w3.org/TR/2001/REC-SVG-20010904/DTD/svg10.dtd">
<svg version="1.0" xmlns="http://www.w3.org/2000/svg"
 width="3780.000000pt" height="3780.000000pt" viewBox="0 0 3780.000000 3780.000000"
 preserveAspectRatio="xMidYMid meet">

<g transform="translate(0.000000,3780.000000) scale(0.100000,-0.100000)"
fill="#000000" stroke="none">
<path d="M18747 25523 c-1 -1 -108 -7 -237 -13 -197 -11 -242 -16 -280 -33
-25 -11 -80 -23 -122 -27 -52 -4 -84 -12 -96 -24 -11 -9 -42 -20 -69 -25 -28
-4 -66 -17 -85 -29 -20 -12 -44 -22 -55 -22 -11 0 -31 -8 -44 -19 -13 -10 -35
-21 -49 -25 -14 -4 -47 -18 -75 -31 -120 -55 -142 -65 -148 -65 -4 0 -47 -25
-95 -57 -159 -103 -175 -113 -184 -113 -9 0 -90 -51 -98 -62 -3 -4 -35 -26
-71 -50 -36 -24 -71 -49 -79 -56 -8 -7 -33 -26 -55 -42 -22 -17 -62 -50 -90
-75 -27 -24 -81 -69 -120 -101 -38 -31 -86 -75 -105 -98 -19 -24 -53 -58 -75
-77 -22 -19 -42 -38 -44 -44 -2 -5 -23 -28 -45 -51 -23 -22 -59 -68 -81 -100
-22 -32 -57 -77 -78 -99 -21 -22 -45 -52 -53 -67 -19 -37 -51 -83 -102 -146
-23 -30 -45 -66 -48 -80 -4 -15 -16 -43 -29 -62 -12 -19 -30 -48 -41 -65 -10
-16 -26 -46 -35 -66 -9 -20 -22 -40 -28 -43 -6 -4 -11 -15 -11 -25 0 -10 -11
-38 -23 -62 -13 -24 -27 -57 -31 -74 -4 -16 -14 -37 -21 -45 -7 -8 -19 -35
-25 -60 -7 -25 -20 -56 -30 -71 -10 -14 -22 -38 -26 -55 -4 -16 -15 -40 -24
-54 -9 -14 -23 -49 -30 -78 -6 -28 -16 -54 -20 -57 -5 -3 -16 -27 -25 -54 -8
-26 -24 -65 -35 -87 -11 -21 -20 -48 -20 -60 0 -12 -9 -33 -20 -47 -11 -14
-20 -31 -20 -39 0 -7 -14 -40 -30 -73 -16 -33 -30 -68 -30 -79 0 -10 -9 -33
-19 -50 -10 -17 -22 -47 -26 -66 -4 -19 -15 -49 -25 -66 -10 -17 -21 -47 -25
-65 -4 -19 -16 -45 -26 -58 -11 -13 -19 -34 -19 -46 0 -12 -10 -42 -23 -66
-13 -24 -27 -59 -30 -77 -4 -19 -15 -44 -26 -58 -10 -13 -22 -40 -25 -59 -4
-20 -18 -57 -32 -82 -13 -25 -24 -53 -24 -62 0 -9 -7 -27 -16 -39 -8 -12 -22
-45 -30 -74 -9 -28 -22 -61 -29 -72 -7 -12 -16 -37 -20 -56 -4 -19 -16 -49
-26 -66 -10 -17 -19 -38 -19 -46 0 -8 -11 -35 -24 -60 -13 -25 -27 -60 -31
-79 -4 -19 -14 -42 -22 -51 -8 -9 -19 -36 -24 -60 -6 -23 -16 -50 -24 -58 -8
-8 -19 -36 -24 -62 -6 -25 -19 -61 -30 -80 -10 -18 -22 -47 -26 -65 -3 -17
-12 -37 -20 -43 -7 -6 -19 -34 -25 -63 -7 -29 -18 -59 -25 -67 -8 -8 -17 -28
-21 -45 -4 -16 -17 -50 -30 -75 -13 -25 -24 -52 -24 -60 0 -8 -7 -28 -16 -45
-15 -27 -27 -60 -80 -210 -9 -27 -23 -57 -30 -65 -6 -8 -17 -35 -24 -60 -6
-25 -17 -54 -24 -65 -7 -11 -19 -38 -26 -60 -7 -22 -21 -54 -31 -71 -11 -17
-19 -42 -19 -54 0 -13 -12 -44 -27 -69 l-28 -46 -3 -982 -3 -983 -22 -5 c-12
-3 -148 -4 -302 -3 l-280 3 -3 193 c-2 182 -12 236 -27 156 -3 -21 -13 -47
-21 -59 -7 -11 -20 -43 -28 -69 -8 -26 -21 -55 -29 -64 -8 -10 -18 -34 -21
-55 -4 -21 -18 -59 -32 -84 -13 -25 -24 -53 -24 -62 0 -9 -9 -29 -20 -46 -11
-16 -20 -37 -20 -45 0 -9 -9 -34 -21 -55 -11 -22 -27 -62 -36 -90 -8 -27 -21
-59 -29 -70 -8 -11 -14 -27 -14 -36 0 -8 -11 -38 -25 -65 -14 -27 -28 -65 -31
-84 -4 -19 -15 -46 -25 -59 -11 -13 -19 -33 -19 -45 0 -11 -9 -35 -19 -53 -11
-17 -25 -51 -31 -75 -7 -24 -20 -57 -31 -74 -10 -17 -19 -39 -19 -49 0 -10
-11 -37 -24 -59 -13 -23 -27 -57 -31 -76 -4 -19 -16 -49 -26 -66 -10 -17 -19
-39 -19 -49 0 -10 -11 -37 -24 -59 -13 -23 -26 -56 -30 -75 -3 -19 -13 -42
-20 -50 -8 -9 -19 -35 -25 -59 -7 -23 -20 -57 -30 -75 -11 -17 -22 -47 -26
-66 -4 -19 -16 -48 -26 -65 -10 -17 -19 -39 -19 -49 0 -10 -11 -39 -24 -65
-13 -26 -26 -60 -30 -76 -4 -17 -15 -41 -25 -55 -10 -14 -21 -44 -25 -65 -4
-22 -14 -49 -22 -60 -8 -12 -19 -39 -25 -61 -6 -22 -17 -47 -24 -55 -7 -8 -18
-35 -25 -60 -6 -25 -19 -56 -27 -69 -9 -14 -19 -39 -24 -55 -8 -36 -41 -119
-75 -191 -13 -28 -24 -59 -24 -70 0 -11 -9 -35 -20 -53 -11 -18 -20 -38 -20
-46 0 -7 -11 -33 -24 -58 -13 -25 -27 -60 -31 -79 -4 -19 -16 -48 -26 -65 -10
-17 -19 -38 -19 -46 0 -7 -9 -32 -21 -53 -11 -22 -29 -62 -39 -90 -10 -27 -28
-75 -39 -105 -11 -30 -29 -73 -41 -95 -11 -21 -20 -46 -20 -55 0 -8 -9 -29
-19 -47 -11 -17 -23 -48 -27 -67 -3 -20 -14 -46 -24 -59 -9 -12 -23 -45 -29
-74 -7 -29 -19 -57 -26 -63 -7 -6 -17 -30 -20 -53 -4 -23 -16 -53 -25 -67 -10
-14 -21 -42 -25 -63 -4 -20 -15 -47 -25 -60 -9 -12 -21 -38 -25 -57 -4 -19
-15 -48 -25 -65 -10 -16 -21 -46 -25 -65 -4 -19 -16 -47 -26 -62 -11 -14 -19
-35 -19 -45 0 -10 -9 -36 -20 -57 -11 -22 -27 -61 -35 -87 -9 -27 -21 -51 -25
-54 -17 -10 -30 -77 -19 -96 9 -18 203 -19 7157 -19 7523 0 7256 -1 7410 39
21 6 75 17 122 26 91 17 177 42 278 81 34 13 71 24 81 24 10 0 29 8 42 19 13
10 39 22 58 26 18 4 49 18 68 31 20 13 40 24 45 24 16 0 158 70 201 98 123 82
206 134 237 148 19 9 39 22 43 30 4 8 13 14 20 14 7 0 30 14 51 30 22 17 43
30 47 30 4 0 40 32 80 70 41 39 77 70 80 70 20 0 222 178 279 247 9 10 29 29
45 43 17 14 37 36 46 50 10 14 47 56 83 94 36 38 66 74 66 81 0 6 20 31 45 56
24 24 45 49 45 56 0 6 10 24 23 40 46 56 119 166 130 197 10 29 59 106 85 134
6 7 12 22 12 32 0 10 11 31 23 47 13 15 27 43 31 62 3 19 13 43 22 52 9 10 20
39 25 64 5 26 18 58 29 72 11 14 20 38 20 53 0 15 9 39 20 53 11 14 23 40 26
59 4 18 17 51 29 73 12 22 25 56 29 76 3 20 15 44 26 54 12 11 20 31 20 49 0
17 11 49 25 71 13 22 25 50 25 62 0 26 20 73 31 73 4 0 12 23 19 52 6 29 18
60 26 69 9 10 20 37 25 61 6 23 16 50 23 58 7 8 19 37 25 64 7 27 21 60 32 74
10 14 19 37 19 52 0 15 9 39 20 53 11 14 23 40 27 59 3 18 16 51 29 74 13 22
24 52 24 66 0 14 8 36 19 49 10 13 22 40 26 59 4 19 18 53 31 76 13 22 24 51
24 63 0 13 9 34 19 48 11 13 23 44 27 69 3 24 15 55 25 68 11 14 22 39 25 58
4 18 15 42 24 53 10 11 21 41 25 67 4 26 18 62 31 79 13 18 24 44 24 57 0 13
9 36 20 51 10 16 24 50 30 76 6 26 20 59 30 73 11 13 20 35 20 47 0 12 8 33
19 46 10 13 22 43 26 66 3 23 15 53 25 65 9 13 21 42 24 65 4 22 16 49 26 58
11 10 22 37 26 61 3 24 14 54 24 67 9 12 20 40 23 62 4 21 16 52 27 67 11 15
20 37 20 49 0 12 11 41 24 63 13 23 27 57 31 76 4 19 16 46 25 60 10 14 21 41
24 61 4 21 15 48 25 60 10 13 21 42 25 64 4 22 14 51 23 63 8 13 21 45 29 72
8 26 20 53 28 59 8 7 18 31 21 54 4 23 15 51 25 62 9 11 20 40 24 65 4 24 14
52 22 62 9 9 20 36 26 60 5 24 17 52 27 63 10 11 21 39 24 62 3 23 14 54 26
69 12 15 21 40 21 55 0 16 10 39 22 51 13 13 25 42 29 70 4 27 17 60 28 75 12
14 21 35 21 47 0 12 11 37 25 56 14 19 25 47 25 63 0 16 11 50 25 76 13 25 27
58 30 73 3 15 12 33 20 41 8 8 19 36 25 63 6 26 19 59 29 73 10 14 21 43 24
65 3 21 13 46 21 55 9 10 19 33 22 52 4 19 17 52 29 74 12 22 25 56 29 76 4
21 13 42 21 49 8 7 17 28 21 49 3 20 16 52 29 71 12 19 25 52 28 74 4 21 13
46 21 55 8 9 19 35 24 58 5 23 19 54 31 69 11 15 21 41 21 59 0 19 8 39 20 50
11 10 20 28 20 40 0 12 14 47 30 78 17 31 30 67 30 80 0 14 8 35 19 48 10 13
21 42 25 64 4 22 19 58 32 81 13 22 24 50 24 61 0 11 9 31 19 45 11 13 23 42
27 64 3 21 17 57 30 80 13 22 24 50 24 61 0 11 8 31 19 44 10 13 22 43 26 66
3 23 15 53 25 66 11 13 24 44 29 67 5 24 16 47 24 52 8 4 18 30 22 57 4 28 15
59 25 71 10 12 22 40 25 63 4 23 15 51 25 62 9 11 20 38 23 60 4 21 15 51 25
65 10 14 22 43 26 65 4 22 14 47 22 56 9 10 21 40 29 69 8 29 20 59 28 69 8 9
18 32 22 51 4 19 15 49 25 65 10 17 21 46 25 65 4 19 15 46 25 60 10 14 21 41
25 60 4 19 16 46 25 60 10 14 21 41 24 61 4 21 15 48 25 60 10 13 21 42 25 63
4 22 16 50 26 63 10 12 21 43 24 67 4 25 15 55 25 68 10 13 21 39 25 59 3 20
15 44 26 54 11 10 20 31 20 46 0 34 15 76 35 95 8 9 15 28 15 43 0 15 11 42
25 61 14 19 25 48 25 65 0 17 11 46 23 65 13 19 27 50 31 69 3 19 13 43 22 52
9 10 20 39 25 64 5 26 18 58 29 72 11 14 20 38 20 52 0 15 11 42 25 61 14 19
25 45 25 58 0 14 10 40 21 59 12 20 26 56 31 81 4 25 14 53 22 61 8 9 19 36
26 61 7 24 20 55 31 68 10 14 19 37 19 52 0 15 9 39 20 53 11 14 23 40 27 59
3 18 16 51 29 74 13 22 24 54 24 71 0 17 8 37 19 47 10 10 22 34 26 54 4 20
18 55 31 78 13 22 24 52 24 67 0 14 7 33 16 41 20 20 34 69 27 96 -4 16 -14
20 -52 20 -188 2 -14043 5 -14044 3z m-887 -4493 c6 -8 10 -131 10 -282 0
-261 0 -268 -21 -279 -15 -8 -340 -11 -1172 -11 -634 0 -1281 -2 -1439 -4
-279 -5 -288 -4 -308 16 -19 19 -20 31 -20 284 0 263 0 265 22 281 21 14 169
15 1471 13 1274 -3 1449 -5 1457 -18z m1038 12 c18 -12 21 -2337 3 -2355 -19
-19 -554 -23 -569 -4 -17 20 -18 2333 -1 2353 9 11 61 14 283 14 149 0 277 -4
284 -8z m3819 -81 c-5 -23 26 -98 159 -382 92 -195 177 -379 191 -409 23 -50
468 -1002 565 -1210 22 -47 68 -146 103 -220 35 -74 81 -173 103 -220 168
-360 242 -521 242 -529 0 -14 -182 -23 -385 -19 l-180 3 -45 90 c-25 50 -62
126 -82 170 -20 44 -57 123 -81 175 -25 52 -60 129 -80 170 -32 70 -431 922
-617 1320 -45 96 -100 214 -122 263 -23 48 -44 87 -48 87 -4 0 -40 -80 -79
-177 -40 -98 -94 -232 -121 -298 -55 -135 -193 -475 -360 -890 -287 -713 -371
-918 -383 -933 -8 -9 -333 -12 -1591 -10 l-1581 3 -3 256 c-2 201 0 259 11
267 9 8 432 13 1416 19 l1402 8 180 445 c99 245 186 459 193 475 8 17 64 154
124 305 61 151 194 482 296 735 102 253 186 467 186 476 0 9 8 23 18 32 19 17
6 16 456 25 l119 2 -6 -29z m1960 11 l42 -7 647 -945 c355 -520 688 -1006 738
-1080 51 -74 145 -212 209 -306 l117 -171 233 -6 c127 -4 701 -7 1273 -7 872
0 1043 -2 1053 -14 8 -9 11 -79 9 -232 l-3 -219 -1412 -3 -1412 -2 -51 72
c-29 40 -90 129 -137 198 -576 844 -1298 1897 -1305 1905 -10 10 -6 -409 12
-1285 6 -245 10 -547 10 -671 l0 -227 -272 -4 c-150 -3 -278 -3 -285 -1 -21 8
-20 -16 -53 2088 -5 330 -12 669 -16 752 l-6 153 23 9 c27 11 522 13 586 3z
m4321 -319 c2 -254 1 -273 -16 -282 -11 -6 -432 -10 -1133 -11 -612 0 -1232
-2 -1375 -3 -207 -1 -265 1 -278 12 -14 12 -16 45 -16 272 0 221 2 260 16 273
14 15 152 16 1407 14 l1392 -3 3 -272z m-14033 -833 c0 -8 -10 -16 -22 -18
-22 -3 -32 16 -16 32 12 11 38 2 38 -14z m2435 -70 c6 -8 10 -131 10 -282 0
-254 -1 -268 -19 -278 -13 -7 -413 -9 -1228 -9 -1006 2 -1212 4 -1230 16 -23
13 -23 15 -23 267 0 224 2 255 17 267 13 12 131 14 672 15 466 0 663 4 681 12
18 8 181 10 568 9 470 -2 544 -4 552 -17z m11190 -80 c19 -19 20 -33 20 -263
0 -203 -3 -246 -16 -265 l-15 -22 -1177 2 c-647 1 -1187 5 -1199 9 l-23 9 0
253 c0 183 3 256 12 265 9 9 168 12 653 12 396 0 646 4 655 10 9 6 219 10 543
10 514 0 528 -1 547 -20z m-10738 -1191 c17 -9 18 -29 16 -272 l-3 -262 -1471
-3 -1472 -2 -5 21 c-9 35 -6 492 4 510 5 10 19 19 31 21 59 8 2884 -5 2900
-13z m-1414 -1500 l84 -12 -7 -56 c-4 -31 -10 -59 -13 -62 -4 -3 -63 0 -132 7
-309 32 -430 6 -476 -103 -20 -45 -17 -130 5 -179 31 -69 72 -90 274 -139 298
-73 369 -141 370 -350 0 -191 -81 -313 -243 -363 -85 -26 -349 -19 -537 14
-30 6 -33 9 -33 43 0 49 9 79 25 85 8 3 71 -2 142 -9 153 -18 283 -19 338 -4
98 27 144 97 145 219 0 141 -34 170 -272 229 -290 73 -362 129 -388 299 -19
119 12 232 81 301 38 38 115 79 173 91 55 12 360 5 464 -11z m1907 -1 l70 -13
-3 -55 c-2 -30 -7 -58 -10 -62 -4 -3 -68 1 -142 9 -347 37 -469 -6 -478 -168
-9 -160 38 -197 343 -268 116 -27 224 -80 259 -126 46 -60 59 -113 54 -233 -3
-89 -8 -117 -30 -163 -68 -147 -208 -209 -443 -195 -111 7 -324 32 -332 39 -8
9 11 116 22 121 6 2 68 -2 136 -10 252 -28 371 -15 436 48 73 71 85 237 21
306 -36 38 -68 50 -234 92 -240 60 -318 103 -362 199 -38 81 -43 213 -12 294
37 100 107 160 220 192 44 12 92 14 235 10 99 -2 212 -10 250 -17z m4415 7
c68 -9 125 -17 127 -19 2 -1 0 -31 -3 -65 l-7 -63 -31 6 c-81 13 -305 28 -375
24 -56 -3 -92 -11 -127 -29 -70 -35 -88 -65 -92 -155 -8 -157 35 -190 343
-263 116 -28 224 -80 259 -126 46 -60 59 -113 54 -233 -3 -89 -8 -117 -29
-162 -36 -76 -68 -112 -136 -147 -108 -57 -244 -64 -528 -27 -60 7 -112 14
-114 14 -7 0 6 111 15 120 5 5 61 3 134 -6 253 -28 372 -15 437 48 61 59 82
192 42 274 -27 57 -82 83 -266 129 -277 68 -351 127 -373 297 -25 203 57 333
243 383 71 19 273 19 427 0z m-5830 -288 c81 -152 149 -279 151 -282 3 -2 72
124 154 280 l150 284 88 1 c48 0 87 -2 87 -4 0 -1 -90 -167 -200 -367 l-200
-364 0 -262 0 -263 -75 0 -75 0 0 261 0 261 -200 363 c-110 199 -200 366 -200
369 0 4 39 5 86 4 l87 -3 147 -278z m2530 218 l0 -65 -190 0 -190 0 0 -565 0
-565 -75 0 -75 0 0 565 0 565 -195 0 -195 0 0 65 0 65 460 0 460 0 0 -65z
m940 0 l0 -65 -310 0 -310 0 0 -210 0 -210 255 0 255 0 0 -65 0 -65 -255 0
-255 0 0 -225 0 -225 310 0 310 0 0 -65 0 -65 -385 0 -385 0 0 630 0 630 385
0 385 0 0 -65z m577 -178 c293 -870 265 -794 279 -756 8 19 86 251 175 517
l161 482 134 0 134 0 0 -630 0 -630 -80 0 -80 0 0 552 c0 303 -2 549 -5 546
-4 -4 -365 -1046 -365 -1054 0 -11 -159 -3 -168 9 -6 6 -90 244 -187 527 -97
283 -181 519 -186 525 -5 5 -9 -207 -9 -548 l0 -557 -75 0 -75 0 0 630 0 630
133 0 132 0 82 -243z"/>
<path d="M11368 17995 c-2 -31 1 -45 9 -45 9 0 13 16 13 45 0 25 -4 45 -9 45
-5 0 -11 -20 -13 -45z"/>
</g>
</svg>
